<svg width="150" height="49" viewBox="0 0 150 49" fill="none" xmlns="http://www.w3.org/2000/svg">
<path d="M92.3095 15.7214C91.7291 15.5226 91.1441 15.3384 90.5546 15.1688C90.6525 14.7718 90.7431 14.3727 90.8261 13.9717C92.1548 7.52621 91.2859 2.32773 88.3201 0.617532C85.4764 -1.02305 80.8253 0.687142 76.1279 4.77529C75.665 5.17634 75.2126 5.59143 74.7709 6.02055C74.4747 5.73409 74.1736 5.45593 73.8677 5.18608C68.9442 0.814333 64.0096 -1.02735 61.0464 0.688002C58.2052 2.33288 57.3638 7.21941 58.5593 13.328C58.6784 13.933 58.8128 14.5346 58.9623 15.1327C58.2645 15.3312 57.5873 15.5427 56.9445 15.767C51.1728 17.7788 47.4868 20.9328 47.4868 24.2045C47.4868 27.5836 51.44 30.9722 57.4558 33.0271C57.9434 33.1926 58.4347 33.3462 58.9297 33.4877C58.7687 34.1322 58.6254 34.7811 58.5 35.4342C57.3596 41.4397 58.2499 46.2076 61.0842 47.8422C64.0113 49.53 68.9236 47.7949 73.707 43.614C74.0851 43.2834 74.4644 42.9339 74.8448 42.5655C75.3232 43.0273 75.8145 43.4756 76.3187 43.9104C80.9517 47.8972 85.528 49.5077 88.3597 47.8688C91.2816 46.1758 92.2338 41.0538 90.9997 34.8215C90.9058 34.3454 90.7969 33.8584 90.6732 33.3605C91.0169 33.2585 91.355 33.1531 91.6873 33.0442C97.9368 30.974 102 27.6301 102 24.2019C102 20.919 98.1955 17.7436 92.3069 15.7171L92.3095 15.7214Z" fill="#8989A2"/>
<path d="M90.9533 30.8373C90.6551 30.9361 90.3518 31.0315 90.0381 31.1235C89.2758 28.7614 88.3536 26.4541 87.2777 24.2174C88.3129 22.01 89.1992 19.7358 89.9307 17.4101C90.4884 17.5717 91.0298 17.7418 91.5515 17.9257C96.5961 19.6626 99.6736 22.2304 99.6736 24.2088C99.6736 26.316 96.3503 29.0523 90.9542 30.8407L90.9533 30.8373ZM88.7146 35.2744C89.2413 37.6365 89.3287 40.0754 88.9724 42.4692C88.6476 44.2198 87.9944 45.386 87.1875 45.8535C85.4687 46.8478 81.7948 45.5553 77.833 42.1461C77.3786 41.7553 76.9203 41.3388 76.4579 40.8965C78.11 39.0674 79.6366 37.1288 81.0273 35.0939C83.5118 34.8844 85.9789 34.5042 88.4113 33.956C88.5224 34.4046 88.6207 34.8444 88.706 35.2752L88.7146 35.2744ZM66.0713 45.6842C64.3929 46.2772 63.0556 46.2935 62.2478 45.8277C60.529 44.836 59.8131 41.0074 60.7868 35.8716C60.9014 35.2649 61.0341 34.6616 61.1847 34.0617C63.6068 34.5822 66.0615 34.9376 68.5317 35.1257C69.9632 37.1534 71.5264 39.0849 73.2111 40.9077C72.8725 41.2348 72.5262 41.5537 72.1721 41.8642C70.3898 43.5014 68.3215 44.7965 66.0704 45.6851L66.0713 45.6842ZM58.2078 30.827C55.8987 30.1008 53.743 28.956 51.8483 27.4496C50.4973 26.2885 49.8184 25.1386 49.8184 24.2053C49.8184 22.2201 52.7781 19.6884 57.7145 17.967C58.3338 17.7521 58.9592 17.5553 59.5906 17.3766C60.3235 19.7278 61.2112 22.028 62.2478 24.2621C61.1984 26.5281 60.2998 28.861 59.5579 31.2455C59.103 31.116 58.653 30.9757 58.2078 30.8244V30.827ZM60.8436 12.8811C59.8192 7.64479 60.4998 3.695 62.2117 2.70412C64.0354 1.64792 68.0685 3.15358 72.3191 6.92805C72.5906 7.16954 72.8639 7.4222 73.1372 7.68346C71.4651 9.49447 69.9148 11.4143 68.4965 13.4302C66.0497 13.6498 63.6197 14.0276 61.2217 14.5612C61.0825 14.0043 60.9576 13.4443 60.847 12.8811H60.8436ZM84.3592 18.688C83.8264 17.7673 83.2738 16.8587 82.7014 15.962C84.4408 16.1812 86.1072 16.4777 87.6722 16.8309C87.1699 18.4239 86.5877 19.9905 85.9276 21.5249C85.424 20.5687 84.9012 19.6233 84.3592 18.6889V18.688ZM74.7701 9.34725C75.904 10.5835 76.9747 11.8762 77.9782 13.2205C75.8314 13.1191 73.6829 13.1191 71.5327 13.2205C72.5915 11.824 73.6769 10.5263 74.7683 9.35326L74.7701 9.34725ZM65.1156 18.7035C64.5811 19.6311 64.068 20.5707 63.5764 21.5223C62.901 19.9144 62.3209 18.3331 61.8499 16.8085C63.4054 16.4605 65.0641 16.176 66.7923 15.9603C66.2136 16.8627 65.6565 17.7794 65.1208 18.7104L65.1156 18.7035ZM66.8344 32.6205C65.147 32.4374 63.4701 32.1678 61.8104 31.8127C62.2916 30.2581 62.8846 28.6433 63.5773 27.0001C64.0706 27.9523 64.5862 28.8925 65.1242 29.8206C65.6725 30.7671 66.2431 31.7004 66.8361 32.6205H66.8344ZM74.8268 39.2284C73.7233 38.0373 72.6224 36.7199 71.5465 35.3027C72.5904 35.344 73.6534 35.3646 74.7357 35.3646C75.8472 35.3646 76.944 35.3402 78.0263 35.2915C77.0303 36.6577 75.965 37.972 74.8345 39.2293L74.8268 39.2284ZM85.9499 26.9167C86.6427 28.4824 87.2537 30.0831 87.7805 31.7122C86.1014 32.0895 84.4038 32.379 82.6946 32.5793C83.2709 31.666 83.829 30.7413 84.3687 29.8052C84.9169 28.8541 85.444 27.8913 85.9499 26.9167ZM82.3517 28.6415C81.5261 30.0739 80.6544 31.4804 79.7365 32.8612C78.1191 32.9763 76.4476 33.0331 74.7443 33.0331C73.041 33.0331 71.3978 32.9806 69.8088 32.8775C68.8675 31.5025 67.9794 30.0936 67.1447 28.651C66.3139 27.2187 65.5387 25.7545 64.8191 24.2586C65.5364 22.765 66.3099 21.3 67.1395 19.8637C67.9668 18.4279 68.848 17.0242 69.783 15.6526C71.4047 15.5297 73.0667 15.4661 74.7469 15.4661C76.427 15.4661 78.0985 15.5306 79.7202 15.6544C80.6449 17.0208 81.5203 18.4187 82.3465 19.8482C83.1727 21.2777 83.9561 22.7358 84.6969 24.2225C83.9688 25.7207 83.1878 27.1917 82.3542 28.6355L82.3517 28.6415ZM87.1557 2.63451C88.981 3.68727 89.6909 7.93268 88.5445 13.5007C88.4694 13.8634 88.3878 14.2246 88.2995 14.5844C85.8978 14.0401 83.4627 13.6554 81.0101 13.4328C79.6051 11.4144 78.0656 9.49302 76.4021 7.68174C76.8106 7.28814 77.2285 6.90485 77.6559 6.53187C81.6805 3.02897 85.442 1.6462 87.1565 2.63451H87.1557Z" fill="white"/>
<path d="M74.7443 19.3376C75.7072 19.3376 76.6484 19.6232 77.4491 20.1581C78.2497 20.6931 78.8737 21.4534 79.2422 22.343C79.6106 23.2326 79.7071 24.2115 79.5192 25.1559C79.3314 26.1003 78.8677 26.9678 78.1868 27.6487C77.5059 28.3295 76.6385 28.7932 75.6941 28.981C74.7497 29.1689 73.7708 29.0725 72.8812 28.704C71.9916 28.3355 71.2312 27.7115 70.6963 26.9109C70.1613 26.1103 69.8758 25.169 69.8758 24.2061C69.8758 22.9149 70.3887 21.6766 71.3017 20.7636C72.2148 19.8506 73.4531 19.3376 74.7443 19.3376" fill="#8989A2"/>
</svg>
