<svg width="150" height="49" viewBox="0 0 150 49" fill="none" xmlns="http://www.w3.org/2000/svg">
<path d="M86.4058 14.0665L94.1178 11.1995L86.4058 8.16551V4.14551L99.6059 9.47351V12.7535L86.4058 18.0865V14.0665ZM13.5048 39.4895C10.7178 39.4895 8.41785 38.0955 8.41785 34.9815V34.8155C8.41785 31.0425 11.6978 29.7285 15.7178 29.7285H17.6048V28.9885C17.6048 27.4285 16.9508 26.5285 15.3108 26.5285C15.0285 26.493 14.7419 26.5169 14.4694 26.5988C14.1968 26.6806 13.9445 26.8187 13.7285 27.0039C13.5125 27.1892 13.3377 27.4176 13.2153 27.6745C13.0929 27.9314 13.0257 28.2111 13.0178 28.4955H8.91085C9.23785 25.0455 11.9448 23.4095 15.5518 23.4095C19.2398 23.4095 21.9458 24.9695 21.9458 28.8235V39.1575H17.7658V37.3505C17.2872 38.0309 16.6476 38.5823 15.9041 38.9555C15.1607 39.3287 14.3364 39.5122 13.5048 39.4895ZM17.6048 33.9955V32.5215H15.8848C13.7518 32.5215 12.6848 33.0955 12.6848 34.4885V34.6545C12.6848 35.7215 13.3388 36.4605 14.8178 36.4605C15.1665 36.5008 15.5197 36.4672 15.8546 36.362C16.1894 36.2568 16.4983 36.0822 16.7612 35.8497C17.0241 35.6172 17.2351 35.3319 17.3804 35.0124C17.5258 34.693 17.6023 34.3465 17.6048 33.9955ZM31.7048 39.4895C27.4378 39.4895 24.3238 36.8635 24.3238 31.6155V31.3745C24.3238 26.1215 27.6038 23.3345 31.7048 23.3345C35.2318 23.3345 38.0988 25.1405 38.4318 29.1555H34.3318C34.0848 27.6815 33.2648 26.6955 31.7908 26.6955C29.9848 26.6955 28.6768 28.1695 28.6768 31.2035V31.6965C28.6768 34.8105 29.8238 36.2045 31.7908 36.2045C32.5236 36.1843 33.2209 35.8842 33.7392 35.3659C34.2576 34.8475 34.5577 34.1503 34.5778 33.4175H38.5178C38.2678 36.9455 35.8878 39.4895 31.7068 39.4895H31.7048ZM47.7798 39.4895C43.5128 39.4895 40.3988 36.8635 40.3988 31.6155V31.3745C40.3988 26.1275 43.6788 23.3395 47.7798 23.3395C51.3068 23.3395 54.1738 25.1455 54.5068 29.1605H50.4068C50.1598 27.6865 49.3398 26.7005 47.8658 26.7005C46.0598 26.7005 44.7518 28.1745 44.7518 31.2085V31.7015C44.7518 34.8155 45.8988 36.2095 47.8658 36.2095C48.5986 36.1893 49.2959 35.8892 49.8142 35.3709C50.3326 34.8525 50.6327 34.1553 50.6528 33.4225H54.5868C54.3418 36.9455 51.9628 39.4895 47.7818 39.4895H47.7798ZM63.9348 39.4895C59.5078 39.4895 56.4738 36.8635 56.4738 31.7015V31.3745C56.4738 26.2075 59.6738 23.3395 63.8548 23.3395C67.7088 23.3395 70.9088 25.4725 70.9088 30.6395V32.5265H60.9028C61.0688 35.3135 62.2968 36.3805 64.1028 36.3805C64.7337 36.4299 65.3625 36.2616 65.8843 35.9037C66.4062 35.5457 66.7897 35.0198 66.9708 34.4135H70.9908C70.4168 37.2755 68.0378 39.4895 63.9368 39.4895H63.9348ZM60.9028 29.6455H66.7238C66.6438 27.3515 65.5768 26.3655 63.8558 26.3655C62.4628 26.4535 61.2298 27.1885 60.9028 29.6455ZM73.5308 23.7455H77.8778V26.0455C78.3216 25.2044 78.9986 24.5093 79.8277 24.0435C80.6568 23.5777 81.6027 23.361 82.5518 23.4195C85.3389 23.4195 87.2258 25.1405 87.2258 28.8335V39.1625H82.8788V29.4875C82.8788 27.6815 82.1388 26.8615 80.5848 26.8615C80.2101 26.8415 79.8355 26.9033 79.487 27.0426C79.1386 27.182 78.8246 27.3956 78.567 27.6685C78.3094 27.9414 78.1143 28.2671 77.9953 28.6231C77.8763 28.979 77.8362 29.3565 77.8778 29.7295V39.1575H73.5308V23.7455ZM95.1798 19.0715V23.7455H98.1328V26.9455H95.1798V34.2455C95.1798 35.3925 95.6728 35.9665 96.7398 35.9665C97.243 35.9871 97.7449 35.903 98.2138 35.7195V39.0805C97.4147 39.3113 96.5855 39.4215 95.7538 39.4075C92.3928 39.4075 90.8338 37.8475 90.8338 34.7335V26.9455H89.0338V23.7455H90.8398V20.8745L95.1798 19.0715ZM114.369 39.1605H110.018V36.8685C109.603 37.6954 108.957 38.3839 108.158 38.8502C107.359 39.3164 106.442 39.5403 105.518 39.4945C102.731 39.4945 100.678 37.7735 100.678 34.1665V23.7455H105.018V33.5865C105.018 35.3925 105.758 36.2125 107.232 36.2125C107.605 36.225 107.976 36.158 108.321 36.0161C108.666 35.8741 108.976 35.6604 109.232 35.3892C109.488 35.118 109.684 34.7954 109.806 34.4429C109.927 34.0903 109.973 33.7159 109.939 33.3445V23.8275H114.286V39.1625L114.369 39.1605ZM117.569 23.7455H121.918V26.6135C122.264 25.6702 122.906 24.8646 123.749 24.3176C124.592 23.7705 125.589 23.5116 126.592 23.5795V27.8455C123.639 27.8455 121.918 28.7455 121.918 31.2915V39.2455H117.571L117.569 23.7455ZM135.369 39.4875C130.942 39.4875 127.908 36.8615 127.908 31.6995V31.3725C127.908 26.2055 131.108 23.3375 135.289 23.3375C139.143 23.3375 142.343 25.4705 142.343 30.6375V32.5245H132.33C132.496 35.3115 133.724 36.3785 135.53 36.3785C136.161 36.4279 136.789 36.2596 137.311 35.9017C137.833 35.5437 138.217 35.0178 138.398 34.4115H142.418C141.764 37.2735 139.384 39.4875 135.364 39.4875H135.369ZM132.25 29.6455H138.071C137.991 27.3515 136.924 26.3655 135.203 26.3655C133.89 26.4535 132.657 27.1885 132.25 29.6455Z" fill="#8989A2"/>
</svg>
