<svg width="150" height="49" viewBox="0 0 150 49" fill="none" xmlns="http://www.w3.org/2000/svg">
<path d="M78.7308 14.4474C78.731 14.9714 78.5758 15.4836 78.2849 15.9194C77.9939 16.3552 77.5803 16.6949 77.0962 16.8955C76.6122 17.0962 76.0796 17.1488 75.5656 17.0467C75.0517 16.9446 74.5796 16.6924 74.209 16.3219C73.8385 15.9515 73.5861 15.4795 73.4838 14.9656C73.3815 14.4517 73.4339 13.919 73.6344 13.4349C73.8348 12.9508 74.1744 12.5371 74.61 12.2459C75.0456 11.9548 75.5578 11.7994 76.0818 11.7994C76.4298 11.7986 76.7746 11.8666 77.0962 11.9994C77.4179 12.1321 77.7102 12.3271 77.9563 12.5732C78.2025 12.8192 78.3976 13.1114 78.5305 13.4331C78.6634 13.7547 78.7315 14.0994 78.7308 14.4474ZM67.8108 19.7854V20.4374C67.3098 19.8951 66.6969 19.4684 66.0145 19.1867C65.332 18.9051 64.5964 18.7753 63.8588 18.8064C61.7461 18.8472 59.7337 19.7151 58.254 21.2236C56.7743 22.7321 55.9454 24.7608 55.9454 26.8739C55.9454 28.987 56.7743 31.0158 58.254 32.5243C59.7337 34.0328 61.7461 34.9007 63.8588 34.9414C64.6007 34.9775 65.3413 34.846 66.0254 34.5567C66.7096 34.2674 67.3198 33.8278 67.8108 33.2704V33.9624C67.809 34.0379 67.8226 34.1129 67.8507 34.1829C67.8787 34.2529 67.9207 34.3165 67.9741 34.3698C68.0275 34.4231 68.0912 34.465 68.1613 34.493C68.2313 34.5209 68.3064 34.5344 68.3818 34.5324H71.6818V19.2124H68.3818C68.2314 19.2162 68.0882 19.2778 67.9819 19.3842C67.8756 19.4907 67.8144 19.634 67.8108 19.7844V19.7854ZM67.8108 29.6044C67.4331 30.1252 66.9368 30.5484 66.3629 30.839C65.789 31.1296 65.1541 31.2792 64.5108 31.2754C63.9154 31.3038 63.3203 31.2111 62.7618 31.0027C62.2032 30.7944 61.6927 30.4749 61.2613 30.0636C60.8298 29.6522 60.4863 29.1575 60.2517 28.6095C60.017 28.0615 59.896 27.4716 59.896 26.8754C59.896 26.2793 60.017 25.6894 60.2517 25.1414C60.4863 24.5934 60.8298 24.0987 61.2613 23.6873C61.6927 23.2759 62.2032 22.9564 62.7618 22.7481C63.3203 22.5398 63.9154 22.447 64.5108 22.4754C65.1525 22.4805 65.7843 22.634 66.3568 22.9239C66.9293 23.2138 67.4269 23.6322 67.8108 24.1464V29.6044ZM74.1268 19.2144H78.0378V34.5344H74.1268V19.2134V19.2144ZM132.555 18.8064C131.817 18.7753 131.081 18.9051 130.399 19.1868C129.716 19.4684 129.103 19.8952 128.602 20.4374V11.8374H124.691V34.5324H127.991C128.141 34.5294 128.285 34.4682 128.391 34.3617C128.497 34.2553 128.558 34.1118 128.561 33.9614V33.2694C129.056 33.8213 129.667 34.2571 130.35 34.5459C131.033 34.8347 131.772 34.9694 132.513 34.9404C134.622 34.8993 136.631 34.034 138.11 32.5299C139.589 31.0258 140.42 29.0024 140.425 26.893C140.431 24.7836 139.61 22.7559 138.139 21.2441C136.668 19.7323 134.664 18.8566 132.555 18.8044V18.8064ZM131.903 31.2344C131.259 31.2431 130.622 31.0956 130.047 30.8046C129.473 30.5136 128.977 30.0877 128.603 29.5634V24.1034C129 23.6032 129.5 23.1948 130.07 22.9063C130.639 22.6179 131.265 22.4562 131.903 22.4324C133.07 22.4324 134.189 22.896 135.014 23.7212C135.839 24.5463 136.303 25.6655 136.303 26.8324C136.303 27.9994 135.839 29.1185 135.014 29.9437C134.189 30.7689 133.07 31.2324 131.903 31.2324V31.2344ZM122.654 25.4494V34.5764H118.742V25.8974C118.742 23.3714 117.927 22.3524 115.728 22.3524C115.122 22.3703 114.527 22.5135 113.98 22.7731C113.433 23.0327 112.946 23.4029 112.549 23.8604V34.5354H108.639V19.2144H111.739C111.889 19.2175 112.033 19.2786 112.139 19.3851C112.246 19.4915 112.307 19.635 112.31 19.7854V20.4374C112.854 19.8958 113.504 19.4716 114.218 19.1911C114.933 18.9105 115.697 18.7796 116.465 18.8064C118.023 18.7531 119.546 19.2753 120.744 20.2734C122.129 21.4144 122.659 22.8804 122.659 25.4484L122.654 25.4494ZM99.1428 18.8074C98.4052 18.7764 97.6697 18.9063 96.9873 19.1879C96.3048 19.4695 95.6919 19.8963 95.1908 20.4384V11.8384H91.2798V34.5334H94.5798C94.7303 34.5304 94.8738 34.4692 94.9802 34.3628C95.0866 34.2564 95.1477 34.1129 95.1508 33.9624V33.2704C95.6463 33.8223 96.2573 34.2581 96.9404 34.5469C97.6234 34.8357 98.3617 34.9704 99.1028 34.9414C101.212 34.9001 103.221 34.0347 104.7 32.5305C106.178 31.0263 107.009 29.0029 107.015 26.8935C107.02 24.7841 106.199 22.7565 104.728 21.2448C103.257 19.733 101.253 18.8575 99.1438 18.8055L99.1428 18.8074ZM98.4908 31.2354C97.8467 31.2441 97.2101 31.0967 96.6354 30.8057C96.0607 30.5147 95.565 30.0888 95.1908 29.5644V24.1044C95.5876 23.6042 96.088 23.1958 96.6577 22.9073C97.2274 22.6189 97.8527 22.4572 98.4908 22.4334C99.0863 22.405 99.6813 22.4978 100.24 22.7061C100.798 22.9144 101.309 23.234 101.74 23.6453C102.172 24.0567 102.515 24.5514 102.75 25.0994C102.985 25.6474 103.106 26.2373 103.106 26.8334C103.106 27.4296 102.985 28.0195 102.75 28.5675C102.515 29.1155 102.172 29.6102 101.74 30.0216C101.309 30.4329 100.798 30.7524 100.24 30.9608C99.6813 31.1691 99.0863 31.2618 98.4908 31.2334V31.2354ZM87.8978 18.8074C88.502 18.7866 89.106 18.854 89.6908 19.0074V22.6334C89.6908 22.6334 86.4308 21.5334 84.3908 23.8564V34.5724H80.4788V19.2134H83.7788C83.9292 19.2165 84.0726 19.2777 84.1788 19.3841C84.2851 19.4906 84.346 19.634 84.3488 19.7844V20.4364C85.2844 19.4657 86.5518 18.8836 87.8978 18.8064V18.8074ZM47.2758 33.1504C47.0758 32.6614 46.8688 32.1324 46.6648 31.6834C46.3388 30.9504 46.0128 30.2574 45.7278 29.6054L45.6868 29.5644C42.8748 23.4524 39.8608 17.2644 36.6868 11.1484L36.5648 10.9034C36.2315 10.2694 35.9058 9.6311 35.5878 8.98843C35.186 8.18786 34.6938 7.43596 34.1208 6.74744C33.5057 5.96115 32.7197 5.32512 31.8225 4.88748C30.9252 4.44985 29.9401 4.22209 28.9418 4.22144C27.947 4.22511 26.965 4.44579 26.0643 4.86807C25.1636 5.29036 24.3659 5.9041 23.7268 6.66644C23.1672 7.36474 22.6759 8.11518 22.2598 8.90744C21.9418 9.54944 21.6162 10.1878 21.2828 10.8224L21.1598 11.0674C18.0228 17.1784 14.9668 23.3674 12.1598 29.4834L12.1188 29.5644C11.8338 30.2174 11.5078 30.9094 11.1818 31.6424C10.9785 32.0911 10.7748 32.5801 10.5708 33.1094C10.0498 34.5139 9.88186 36.0249 10.0818 37.5094C10.3002 39.0006 10.904 40.409 11.8335 41.5953C12.7631 42.7816 13.9862 43.7047 15.3818 44.2734C16.4263 44.712 17.549 44.9339 18.6818 44.9254C19.0364 44.9186 19.3904 44.8912 19.7418 44.8434C21.1795 44.6609 22.5656 44.1898 23.8168 43.4584C25.7142 42.3253 27.4172 40.8948 28.8608 39.2214C30.3159 40.8862 32.0202 42.3154 33.9128 43.4584C35.1638 44.1896 36.5494 44.6607 37.9868 44.8434C38.3382 44.8914 38.6922 44.9188 39.0468 44.9254C40.18 44.938 41.3035 44.716 42.3468 44.2734C43.7433 43.706 44.9672 42.7832 45.8969 41.5967C46.8266 40.4102 47.4298 39.0011 47.6468 37.5094C47.9467 36.0512 47.8185 34.5375 47.2778 33.1504H47.2758ZM28.9008 35.2694C26.9969 33.071 25.5929 30.4855 24.7858 27.6914C24.5871 26.8781 24.5457 26.0343 24.6638 25.2054C24.7438 24.5915 24.9672 24.0051 25.3158 23.4934C25.7246 22.9275 26.2642 22.4688 26.8886 22.1566C27.5131 21.8443 28.2038 21.6878 28.9018 21.7004C29.602 21.6742 30.2975 21.8247 30.9242 22.1381C31.551 22.4514 32.0887 22.9175 32.4878 23.4934C32.8358 24.0054 33.0591 24.5917 33.1398 25.2054C33.2582 26.0343 33.2168 26.8782 33.0178 27.6914C32.1912 30.4772 30.7885 33.0583 28.9008 35.2674V35.2694ZM45.1568 37.1844C45.0103 38.2341 44.5908 39.2269 43.9402 40.0636C43.2897 40.9003 42.431 41.5516 41.4498 41.9524C40.4686 42.352 39.4009 42.4922 38.3498 42.3594C37.2546 42.2234 36.1993 41.8629 35.2498 41.3004C33.4991 40.241 31.9306 38.9062 30.6048 37.3474C32.9054 34.7573 34.5907 31.6806 35.5348 28.3474C35.7989 27.2127 35.8666 26.041 35.7348 24.8834C35.5841 23.888 35.2078 22.9402 34.6348 22.1124C33.9862 21.1978 33.1235 20.4559 32.1221 19.9516C31.1206 19.4473 30.0108 19.1959 28.8898 19.2194C27.7703 19.2048 26.6637 19.4601 25.6637 19.9637C24.6637 20.4673 23.7997 21.2043 23.1448 22.1124C22.572 22.9403 22.1957 23.8881 22.0448 24.8834C21.8716 26.0395 21.9397 27.219 22.2448 28.3474C22.8558 31.0364 24.5258 34.0924 27.1748 37.3924C25.8585 38.9607 24.2884 40.2969 22.5298 41.3454C21.5806 41.9085 20.5251 42.2691 19.4298 42.4044C18.3788 42.5223 17.3148 42.3826 16.3298 41.9974C15.3516 41.593 14.4964 40.9392 13.8496 40.1012C13.2029 39.2632 12.7871 38.2703 12.6438 37.2214C12.5093 36.148 12.6352 35.058 13.0108 34.0434C13.1328 33.6354 13.3368 33.2284 13.5408 32.7434C13.8258 32.0914 14.1518 31.3984 14.4778 30.7054L14.5188 30.6245C17.3298 24.5535 20.3448 18.3604 23.4818 12.3304L23.6038 12.0854C23.9298 11.4744 24.2558 10.8224 24.5818 10.2114C24.8895 9.57054 25.2726 8.96862 25.7228 8.41843C26.1244 7.94597 26.6239 7.56647 27.1868 7.30621C27.7496 7.04595 28.3622 6.91116 28.9823 6.91116C29.6024 6.91116 30.2151 7.04595 30.7779 7.30621C31.3407 7.56647 31.8402 7.94597 32.2418 8.41843C32.6915 8.96903 33.0745 9.57087 33.3828 10.2114C33.7088 10.8224 34.0348 11.4744 34.3608 12.0854L34.4838 12.3304C37.5731 18.3851 40.5475 24.4968 43.4068 30.6654V30.7064C43.7328 31.3594 44.0178 32.0924 44.3438 32.7444C44.5438 33.2324 44.7508 33.6444 44.8738 34.0444C45.2096 35.0541 45.3068 36.1279 45.1578 37.1814L45.1568 37.1844Z" fill="#8989A2"/>
</svg>
