<svg width="150" height="49" viewBox="0 0 150 49" fill="none" xmlns="http://www.w3.org/2000/svg">
<path d="M71.9038 9.50853C71.9118 9.40847 71.8973 9.30791 71.8615 9.21414C71.8257 9.12038 71.7694 9.03576 71.6969 8.96643C71.6243 8.89711 71.5372 8.84482 71.4419 8.81335C71.3466 8.78189 71.2454 8.77204 71.1458 8.78453H68.4758C68.2298 8.75573 67.9804 8.78319 67.7465 8.86483C67.5127 8.94646 67.3004 9.08015 67.1257 9.2558C66.951 9.43144 66.8185 9.64447 66.7381 9.8788C66.6578 10.1131 66.6317 10.3626 66.6618 10.6085V33.4775C66.6548 33.578 66.67 33.6788 66.7064 33.7727C66.7429 33.8666 66.7997 33.9513 66.8727 34.0207C66.9457 34.09 67.0331 34.1424 67.1288 34.174C67.2244 34.2057 67.3259 34.2157 67.4258 34.2035H70.0898C70.3361 34.2324 70.5856 34.2049 70.8197 34.1231C71.0538 34.0414 71.2662 33.9075 71.4409 33.7317C71.6156 33.5558 71.7481 33.3425 71.8283 33.1079C71.9085 32.8733 71.9343 32.6236 71.9038 32.3775V9.50853ZM102.418 17.2225C102.418 16.7935 102.101 16.5815 101.669 16.5815H98.4288C98.1757 16.5527 97.9205 16.6121 97.706 16.7497C97.4916 16.8872 97.3312 17.0945 97.2518 17.3365L92.6838 27.4745L86.3178 17.4425C86.1466 17.1381 85.8869 16.893 85.573 16.7398C85.2592 16.5865 84.9062 16.5324 84.5608 16.5845H80.7108C80.3905 16.5615 80.0693 16.6149 79.7737 16.7404C79.4782 16.866 79.2167 17.06 79.0108 17.3065L72.2268 24.5845L78.3058 33.4505C78.4134 33.6719 78.5803 33.859 78.7879 33.9911C78.9956 34.1231 79.2358 34.1949 79.4818 34.1985H83.1078C83.6508 34.1985 83.9668 33.9805 83.9668 33.5245C83.9448 33.2575 83.8335 33.0056 83.6508 32.8095L78.3068 24.8975L82.3598 20.5315L90.3708 32.3735L86.8348 39.8545C86.7214 40.0541 86.648 40.2739 86.6188 40.5015C86.6188 40.9345 86.9368 41.1425 87.3698 41.1425H90.5848C90.8376 41.1726 91.093 41.1141 91.3074 40.977C91.5219 40.8398 91.6821 40.6326 91.7608 40.3905L102.206 17.8705C102.321 17.6718 102.394 17.451 102.418 17.2225ZM54.9408 22.6775C53.8758 22.4375 53.5408 22.1365 53.5408 21.5995C53.5408 21.1815 53.8718 20.8485 54.8318 20.8485H62.6048C62.8504 20.8786 63.0996 20.8525 63.3336 20.7721C63.5675 20.6917 63.7802 20.5592 63.9554 20.3845C64.1306 20.2099 64.2639 19.9977 64.345 19.764C64.4262 19.5303 64.4531 19.2812 64.4238 19.0355V17.3425C64.4364 17.2429 64.4267 17.1417 64.3954 17.0462C64.364 16.9508 64.3119 16.8635 64.2427 16.7907C64.1735 16.7178 64.089 16.6613 63.9953 16.6251C63.9016 16.589 63.801 16.5741 63.7008 16.5815H54.6008C50.5438 16.5845 48.4178 18.9335 48.4178 21.9245C48.4178 24.5885 50.0538 26.2105 53.3278 26.9385L58.5518 28.1075C59.6138 28.3425 59.9438 28.6475 59.9438 29.1915C59.9438 29.6035 59.6148 29.9365 58.6578 29.9365H50.5578C50.3118 29.9052 50.0619 29.9304 49.8271 30.0103C49.5923 30.0902 49.3788 30.2226 49.2029 30.3974C49.027 30.5723 48.8933 30.7849 48.8121 31.0192C48.7308 31.2535 48.704 31.5033 48.7338 31.7495V33.4395C48.7211 33.539 48.7305 33.6401 48.7614 33.7355C48.7924 33.831 48.8441 33.9183 48.9128 33.9914C48.9816 34.0645 49.0657 34.1214 49.159 34.158C49.2524 34.1947 49.3528 34.2103 49.4528 34.2035H58.3418C63.1418 34.2035 65.0728 31.8535 65.0728 29.0705C65.0728 26.1945 63.4158 24.5705 60.1648 23.8475L54.9408 22.6775Z" fill="#8989A2"/>
</svg>
