<svg width="180" height="36" viewBox="0 0 180 36" fill="none" xmlns="http://www.w3.org/2000/svg">
<path d="M15.3662 4.82936C16.5032 2.74454 19.4968 2.74453 20.6338 4.82936L22.9256 9.03174C23.3571 9.82292 24.1214 10.3782 25.0072 10.5441L29.7121 11.4252C32.0463 11.8623 32.9713 14.7093 31.3399 16.4349L28.0514 19.9132C27.4323 20.5681 27.1404 21.4666 27.2563 22.3603L27.8723 27.1072C28.1779 29.4621 25.756 31.2217 23.6107 30.2034L19.2865 28.1507C18.4724 27.7642 17.5276 27.7642 16.7135 28.1507L12.3893 30.2034C10.244 31.2217 7.82214 29.4621 8.12772 27.1072L8.74367 22.3603C8.85964 21.4666 8.5677 20.5681 7.94858 19.9132L4.66009 16.4349C3.02866 14.7093 3.95372 11.8623 6.28786 11.4252L10.9928 10.5441C11.8786 10.3782 12.6429 9.82293 13.0744 9.03174L15.3662 4.82936Z"/>
<path d="M51.3662 4.82936C52.5032 2.74454 55.4968 2.74453 56.6338 4.82936L58.9256 9.03174C59.3571 9.82292 60.1214 10.3782 61.0072 10.5441L65.7121 11.4252C68.0463 11.8623 68.9713 14.7093 67.3399 16.4349L64.0514 19.9132C63.4323 20.5681 63.1404 21.4666 63.2563 22.3603L63.8723 27.1072C64.1779 29.4621 61.756 31.2217 59.6107 30.2034L55.2865 28.1507C54.4724 27.7642 53.5276 27.7642 52.7135 28.1507L48.3893 30.2034C46.244 31.2217 43.8221 29.4621 44.1277 27.1072L44.7437 22.3603C44.8596 21.4666 44.5677 20.5681 43.9486 19.9132L40.6601 16.4349C39.0287 14.7093 39.9537 11.8623 42.2879 11.4252L46.9928 10.5441C47.8786 10.3782 48.6429 9.82293 49.0744 9.03174L51.3662 4.82936Z"/>
<path d="M87.3662 4.82936C88.5032 2.74454 91.4968 2.74453 92.6338 4.82936L94.9256 9.03174C95.3571 9.82292 96.1214 10.3782 97.0072 10.5441L101.712 11.4252C104.046 11.8623 104.971 14.7093 103.34 16.4349L100.051 19.9132C99.4323 20.5681 99.1404 21.4666 99.2563 22.3603L99.8723 27.1072C100.178 29.4621 97.756 31.2217 95.6107 30.2034L91.2865 28.1507C90.4724 27.7642 89.5276 27.7642 88.7135 28.1507L84.3893 30.2034C82.244 31.2217 79.8221 29.4621 80.1277 27.1072L80.7437 22.3603C80.8596 21.4666 80.5677 20.5681 79.9486 19.9132L76.6601 16.4349C75.0287 14.7093 75.9537 11.8623 78.2879 11.4252L82.9928 10.5441C83.8786 10.3782 84.6429 9.82293 85.0744 9.03174L87.3662 4.82936Z"/>
<path d="M123.366 4.82936C124.503 2.74454 127.497 2.74453 128.634 4.82936L130.926 9.03174C131.357 9.82292 132.121 10.3782 133.007 10.5441L137.712 11.4252C140.046 11.8623 140.971 14.7093 139.34 16.4349L136.051 19.9132C135.432 20.5681 135.14 21.4666 135.256 22.3603L135.872 27.1072C136.178 29.4621 133.756 31.2217 131.611 30.2034L127.286 28.1507C126.472 27.7642 125.528 27.7642 124.714 28.1507L120.389 30.2034C118.244 31.2217 115.822 29.4621 116.128 27.1072L116.744 22.3603C116.86 21.4666 116.568 20.5681 115.949 19.9132L112.66 16.4349C111.029 14.7093 111.954 11.8623 114.288 11.4252L118.993 10.5441C119.879 10.3782 120.643 9.82293 121.074 9.03174L123.366 4.82936Z"/>
<path d="M159.366 4.82936C160.503 2.74454 163.497 2.74453 164.634 4.82936L166.926 9.03174C167.357 9.82292 168.121 10.3782 169.007 10.5441L173.712 11.4252C176.046 11.8623 176.971 14.7093 175.34 16.4349L172.051 19.9132C171.432 20.5681 171.14 21.4666 171.256 22.3603L171.872 27.1072C172.178 29.4621 169.756 31.2217 167.611 30.2034L163.286 28.1507C162.472 27.7642 161.528 27.7642 160.714 28.1507L156.389 30.2034C154.244 31.2217 151.822 29.4621 152.128 27.1072L152.744 22.3603C152.86 21.4666 152.568 20.5681 151.949 19.9132L148.66 16.4349C147.029 14.7093 147.954 11.8623 150.288 11.4252L154.993 10.5441C155.879 10.3782 156.643 9.82293 157.074 9.03174L159.366 4.82936Z"/>
<mask id="mask0_721_19" style="mask-type:alpha" maskUnits="userSpaceOnUse" x="147" y="3" width="30" height="28">
<path d="M159.366 4.82936C160.503 2.74454 163.497 2.74453 164.634 4.82936L166.926 9.03174C167.357 9.82292 168.121 10.3782 169.007 10.5441L173.712 11.4252C176.046 11.8623 176.971 14.7093 175.34 16.4349L172.051 19.9132C171.432 20.5681 171.14 21.4666 171.256 22.3603L171.872 27.1072C172.178 29.4621 169.756 31.2217 167.611 30.2034L163.286 28.1507C162.472 27.7642 161.528 27.7642 160.714 28.1507L156.389 30.2034C154.244 31.2217 151.822 29.4621 152.128 27.1072L152.744 22.3603C152.86 21.4666 152.568 20.5681 151.949 19.9132L148.66 16.4349C147.029 14.7093 147.954 11.8623 150.288 11.4252L154.993 10.5441C155.879 10.3782 156.643 9.82293 157.074 9.03174L159.366 4.82936Z"/>
</mask>
<g mask="url(#mask0_721_19)">
<rect x="161" y="38" width="16" height="43" transform="rotate(-180 161 38)"/>
</g>
</svg>
