<svg width="26" height="30" viewBox="0 0 26 30" xmlns="http://www.w3.org/2000/svg">
<path d="M10.4253 12.6387C9.61461 12.6387 8.97461 13.372 8.97461 14.2667C8.97461 15.1613 9.62883 15.8947 10.4253 15.8947C11.2359 15.8947 11.8759 15.1613 11.8759 14.2667C11.8902 13.372 11.2359 12.6387 10.4253 12.6387ZM15.6164 12.6387C14.8057 12.6387 14.1657 13.372 14.1657 14.2667C14.1657 15.1613 14.8199 15.8947 15.6164 15.8947C16.4271 15.8947 17.0671 15.1613 17.0671 14.2667C17.0671 13.372 16.4271 12.6387 15.6164 12.6387Z" />
<path d="M22.529 0.333374H3.47122C1.86411 0.333374 0.555664 1.68271 0.555664 3.35471V23.184C0.555664 24.856 1.86411 26.2054 3.47122 26.2054H19.5992L18.8454 23.492L20.6659 25.2374L22.3868 26.88L25.4446 29.6667V3.35471C25.4446 1.68271 24.1361 0.333374 22.529 0.333374ZM17.0392 19.488C17.0392 19.488 16.5272 18.8574 16.1006 18.3C17.9637 17.7574 18.6748 16.5547 18.6748 16.5547C18.0917 16.9507 17.537 17.2294 17.0392 17.42C16.3281 17.728 15.6454 17.9334 14.977 18.0507C13.6117 18.3147 12.3601 18.2414 11.2934 18.036C10.4828 17.8747 9.78589 17.64 9.20278 17.4054C8.87566 17.2734 8.52011 17.112 8.16455 16.9067C8.12189 16.8774 8.07922 16.8627 8.03655 16.8334C8.00811 16.8187 7.99389 16.804 7.97966 16.7894C7.72366 16.6427 7.58144 16.54 7.58144 16.54C7.58144 16.54 8.26411 17.7134 10.0703 18.2707C9.64366 18.828 9.11744 19.488 9.11744 19.488C5.97433 19.3854 4.77966 17.2587 4.77966 17.2587C4.77966 12.536 6.82766 8.70804 6.82766 8.70804C8.87566 7.12404 10.8241 7.16804 10.8241 7.16804L10.9663 7.34404C8.40633 8.10671 7.22589 9.26538 7.22589 9.26538C7.22589 9.26538 7.53878 9.08938 8.065 8.84004C9.58677 8.15071 10.7957 7.96004 11.2934 7.91604C11.3788 7.90138 11.4499 7.88671 11.5352 7.88671C12.4028 7.76938 13.3841 7.74004 14.4081 7.85738C15.7592 8.01871 17.2099 8.42938 18.689 9.26538C18.689 9.26538 17.5654 8.16538 15.1477 7.40271L15.3468 7.16804C15.3468 7.16804 17.2952 7.12404 19.3432 8.70804C19.3432 8.70804 21.3912 12.536 21.3912 17.2587C21.3912 17.2587 20.1823 19.3854 17.0392 19.488Z" />
</svg>
