<svg width="32" height="27" viewBox="0 0 32 27" xmlns="http://www.w3.org/2000/svg">
<path d="M10.1157 26.4999C22.0854 26.4999 28.6312 16.498 28.6312 7.82472C28.6312 7.54066 28.6255 7.25789 28.6128 6.9763C29.8864 6.04682 30.9856 4.8959 31.8589 3.5775C30.6929 4.10031 29.4381 4.45221 28.1219 4.61088C29.4654 3.79821 30.4968 2.51287 30.9835 0.980513C29.706 1.7449 28.3085 2.28371 26.8512 2.57374C25.6637 1.29796 23.9732 0.5 22.1011 0.5C18.5074 0.5 15.5932 3.43944 15.5932 7.06272C15.5932 7.5778 15.6503 8.07882 15.762 8.55933C10.3535 8.28483 5.55757 5.67303 2.34789 1.70161C1.76981 2.7032 1.46572 3.84163 1.46671 5.00057C1.46671 7.27775 2.61558 9.28805 4.36261 10.4641C3.32923 10.4323 2.31851 10.1508 1.41541 9.64317C1.41445 9.67076 1.41445 9.6976 1.41445 9.72701C1.41445 12.9057 3.65758 15.5597 6.63523 16.1611C6.07598 16.3148 5.4989 16.3925 4.91927 16.3922C4.50879 16.3919 4.09926 16.3522 3.69622 16.2737C4.52471 18.8817 6.92707 20.7795 9.7753 20.8325C7.54802 22.5933 4.74227 23.642 1.69288 23.642C1.16826 23.642 0.650026 23.612 0.140625 23.5512C3.02067 25.4132 6.44045 26.4996 10.116 26.4996" />
</svg>
