<svg width="857" height="162" viewBox="0 0 857 162" fill="none" xmlns="http://www.w3.org/2000/svg">
<path d="M306.585 161.23C309.48 150.452 312.38 139.676 315.268 128.896C323.889 96.7217 332.501 64.5444 341.148 32.3764C341.389 31.4751 341.241 30.8844 340.648 30.2111C338.91 28.2364 337.234 26.2084 335.406 24.0484C335.861 23.9831 336.162 23.9017 336.464 23.9017C358.354 23.8951 380.246 23.9071 402.138 23.8644C403.265 23.8631 403.449 24.5071 403.752 25.2537C414.553 51.9191 425.357 78.5831 436.161 105.246C436.346 105.703 436.546 106.154 436.852 106.872C438.029 102.494 439.134 98.4017 440.23 94.3071C446.385 71.3111 452.546 48.3177 458.67 25.3137C458.962 24.2191 459.393 23.8617 460.554 23.8657C474.88 23.9124 489.205 23.8951 503.529 23.8951H505.085C504.33 26.7444 503.625 29.4351 502.905 32.1204C491.445 74.9137 479.982 117.704 468.522 160.496C468.456 160.743 468.378 160.984 468.308 161.23H409.893C409.794 160.908 409.721 160.578 409.593 160.267C398.362 132.775 387.129 105.284 375.892 77.7951C375.752 77.4537 375.572 77.1284 375.33 76.6337C375.162 77.2044 375.04 77.5951 374.933 77.9911C368.34 102.576 361.742 127.16 355.16 151.751C354.317 154.899 353.554 158.07 352.754 161.23H306.585Z" fill="url(#paint0_linear_168_30)"/>
<path d="M533.608 161.23C532.708 161.016 531.803 160.827 530.911 160.584C523.28 158.503 518.4 151.552 519.528 143.686C520.177 139.174 521.484 134.747 522.655 130.323C526.703 115.027 530.823 99.7497 534.916 84.4644C535.004 84.1417 535.116 83.8257 535.224 83.4791H588.991C584.989 98.4257 581.011 113.29 576.995 128.295H677.843C674.887 139.374 671.972 150.303 669.057 161.23H533.608Z" fill="url(#paint1_linear_168_30)"/>
<path d="M216.795 161.23C218.063 156.61 219.355 151.996 220.595 147.37C230.85 109.091 241.09 70.8097 251.37 32.5377C251.65 31.4991 251.476 30.8257 250.784 30.0511C249.068 28.1324 247.442 26.1324 245.63 23.9871H299.607C299.487 24.4857 299.391 24.9231 299.275 25.3564C287.227 70.3577 275.179 115.359 263.131 160.362C263.056 160.646 263.019 160.94 262.964 161.23H216.795Z" fill="url(#paint2_linear_168_30)"/>
<path d="M0.485352 161.23C7.46135 135.172 14.4374 109.115 21.412 83.0617H71.3573C71.328 83.3857 71.3453 83.6697 71.2747 83.9311C64.42 109.546 57.5587 135.159 50.6933 160.771C50.6507 160.931 50.5534 161.078 50.4814 161.23H0.485352Z" fill="url(#paint3_linear_168_30)"/>
<path d="M178.767 159.346H177.296C158.592 159.346 139.888 159.335 121.183 159.374C120.089 159.375 119.667 158.992 119.292 158.022C112.991 141.668 106.64 125.335 100.344 108.982C99.9721 108.015 99.5148 107.718 98.5068 107.738C95.0655 107.803 91.6215 107.762 88.1775 107.762H86.6441C87.5268 104.484 88.3681 101.382 89.1975 98.2762C90.4348 93.6442 91.6895 89.0149 92.8775 84.3695C93.1201 83.4242 93.5161 83.1269 94.5108 83.1309C106.923 83.1695 119.336 83.1562 131.748 83.1562C134.989 83.1549 136.709 81.8629 137.552 78.7429C139.479 71.6149 141.396 64.4842 143.303 57.3522C144.132 54.2482 143.104 52.9215 139.885 52.9215C113.7 52.9175 87.5148 52.9122 61.3281 52.9415C60.2121 52.9429 59.4601 52.6202 58.7108 51.7829C50.7535 42.8749 42.7561 34.0042 34.7708 25.1215C34.4908 24.8109 34.2308 24.4842 33.8135 23.9895C34.3748 23.9509 34.7655 23.8989 35.1548 23.8989C84.2108 23.8962 133.267 23.9495 182.324 23.8549C192.991 23.8335 198.793 31.9949 198.179 40.6909C197.941 44.0375 196.995 47.3589 196.145 50.6335C193.631 60.3269 191.001 69.9909 188.421 79.6682C186.291 87.6602 181.315 93.5562 174.692 98.2122C170.167 101.394 165.168 103.587 159.869 105.119C159.467 105.235 159.071 105.372 158.544 105.539C165.265 123.422 171.963 141.243 178.767 159.346Z" fill="url(#paint4_linear_168_30)"/>
<path d="M696.956 50.977C657.039 50.9784 617.122 50.977 577.206 51.0024C576.156 51.0037 575.371 50.7184 574.566 50.0544C564.707 41.8997 554.822 33.7797 544.947 25.6464C544.376 25.177 543.831 24.677 543.039 23.9877H705.788" fill="url(#paint5_linear_168_30)"/>
<path d="M689.749 84.2349C688.273 89.7669 686.781 95.2962 685.337 100.838C685.11 101.708 684.774 102.048 683.805 102.046C661.58 102.015 639.356 102.023 617.132 102.019C616.762 102.019 616.392 101.983 615.844 101.952C618.062 93.6122 620.25 85.3856 622.472 77.0336H691.678" fill="url(#paint6_linear_168_30)"/>
<path d="M706.006 0.199741H711.922L717.738 15.6211H717.805L723.719 0.199741H729.27L719.566 23.7304H715.411L706.006 0.199741Z" fill="url(#paint7_linear_168_30)"/>
<path d="M736.914 9.93799H739.973C740.438 9.93799 740.93 9.92199 741.452 9.88866C741.972 9.85532 742.442 9.75532 742.864 9.58866C743.284 9.42332 743.633 9.16199 743.91 8.80732C744.188 8.45399 744.326 7.95532 744.326 7.31266C744.326 6.71399 744.205 6.23799 743.96 5.88199C743.717 5.52866 743.406 5.25799 743.03 5.06866C742.653 4.88066 742.22 4.75266 741.733 4.68732C741.246 4.62066 740.77 4.58732 740.305 4.58732H736.914V9.93799ZM731.73 0.199324H740.836C742.033 0.199324 743.168 0.316657 744.242 0.548657C745.318 0.78199 746.26 1.16999 747.068 1.71266C747.877 2.25532 748.518 2.98732 748.996 3.90599C749.472 4.82599 749.71 5.97266 749.71 7.34599C749.71 9.00732 749.278 10.4193 748.414 11.5833C747.55 12.746 746.286 13.4833 744.625 13.7927L750.608 23.7313H744.393L739.473 14.3247H736.914V23.7313H731.73V0.199324Z" fill="url(#paint8_linear_168_30)"/>
<path d="M710.803 96.6053H713.869C714.335 96.6053 714.831 96.588 715.352 96.5547C715.875 96.5227 716.347 96.4213 716.769 96.2547C717.191 96.088 717.541 95.828 717.82 95.472C718.097 95.1173 718.236 94.6173 718.236 93.972C718.236 93.372 718.113 92.8947 717.869 92.5387C717.624 92.184 717.313 91.9107 716.936 91.7213C716.557 91.5333 716.124 91.4053 715.636 91.3387C715.147 91.272 714.668 91.2387 714.203 91.2387H710.803V96.6053ZM705.603 86.8387H714.736C715.936 86.8387 717.075 86.956 718.153 87.1893C719.229 87.4213 720.173 87.8107 720.987 88.356C721.796 88.9 722.441 89.6333 722.919 90.5547C723.396 91.4773 723.636 92.628 723.636 94.0053C723.636 95.672 723.203 97.088 722.335 98.2547C721.469 99.4213 720.203 100.161 718.536 100.472L724.536 110.439H718.303L713.369 101.004H710.803V110.439H705.603V86.8387Z" fill="url(#paint9_linear_168_30)"/>
<path d="M727.403 86.8384H743.435V91.6384H732.602V96.0384H742.837V100.838H732.602V105.638H744.037V110.438H727.403V86.8384Z" fill="url(#paint10_linear_168_30)"/>
<path d="M757.969 93.7056L755.102 101.039H760.869L757.969 93.7056ZM755.969 86.839H760.269L770.535 110.438H764.669L762.635 105.438H753.469L751.502 110.438H745.769L755.969 86.839Z" fill="url(#paint11_linear_168_30)"/>
<path d="M773.103 86.8384H778.301V105.638H787.936V110.438H773.103V86.8384Z" fill="url(#paint12_linear_168_30)"/>
<path d="M790.736 86.8386H795.936V110.439H790.736V86.8386Z" fill="url(#paint13_linear_168_30)"/>
<path d="M805.234 91.4387H798.501V86.8387H817.168V91.4387H810.434V110.439H805.234V91.4387Z" fill="url(#paint14_linear_168_30)"/>
<path d="M825.601 100.372L816.734 86.8382H823.2L828.2 95.6716L833.501 86.8382H839.668L830.8 100.372V110.438H825.601V100.372Z" fill="url(#paint15_linear_168_30)"/>
<path d="M705.535 112.171H710.735V135.771H705.535V112.171Z" fill="url(#paint16_linear_168_30)"/>
<path d="M727.135 117.938C726.714 117.405 726.141 117.011 725.419 116.754C724.697 116.499 724.013 116.371 723.369 116.371C722.991 116.371 722.603 116.415 722.202 116.505C721.802 116.594 721.425 116.733 721.069 116.921C720.714 117.11 720.425 117.359 720.202 117.671C719.981 117.982 719.869 118.359 719.869 118.805C719.869 119.517 720.135 120.061 720.669 120.438C721.202 120.815 721.874 121.138 722.686 121.405C723.497 121.671 724.369 121.938 725.302 122.205C726.235 122.471 727.107 122.85 727.919 123.338C728.73 123.827 729.402 124.482 729.937 125.305C730.469 126.127 730.735 127.227 730.735 128.605C730.735 129.915 730.491 131.061 730.002 132.038C729.513 133.017 728.853 133.827 728.019 134.471C727.186 135.117 726.219 135.594 725.118 135.905C724.019 136.215 722.858 136.371 721.635 136.371C720.103 136.371 718.679 136.138 717.369 135.671C716.057 135.205 714.835 134.45 713.702 133.405L717.402 129.338C717.937 130.05 718.607 130.599 719.419 130.987C720.23 131.377 721.069 131.571 721.937 131.571C722.358 131.571 722.785 131.522 723.218 131.421C723.653 131.321 724.041 131.171 724.385 130.971C724.73 130.771 725.007 130.517 725.219 130.205C725.43 129.894 725.535 129.526 725.535 129.105C725.535 128.394 725.263 127.833 724.719 127.421C724.174 127.011 723.491 126.661 722.669 126.371C721.846 126.082 720.957 125.794 720.002 125.505C719.047 125.217 718.158 124.827 717.335 124.338C716.513 123.85 715.83 123.205 715.285 122.405C714.741 121.605 714.469 120.55 714.469 119.238C714.469 117.971 714.718 116.859 715.218 115.905C715.718 114.95 716.385 114.149 717.219 113.505C718.053 112.859 719.013 112.377 720.103 112.055C721.191 111.733 722.314 111.571 723.469 111.571C724.802 111.571 726.091 111.761 727.335 112.138C728.579 112.517 729.702 113.149 730.702 114.038L727.135 117.938Z" fill="url(#paint17_linear_168_30)"/>
<path d="M744.469 112.171H751.535L761.569 128.571H761.635V112.171H766.835V135.771H760.035L749.735 118.972H749.669V135.771H744.469V112.171Z" fill="url(#paint18_linear_168_30)"/>
<path d="M771.836 112.171H787.868V116.972H777.035V121.371H787.269V126.171H777.035V130.972H788.469V135.771H771.836V112.171Z" fill="url(#paint19_linear_168_30)"/>
<path d="M790.301 112.171H796.234L802.067 127.639H802.134L808.067 112.171H813.634L803.901 135.771H799.734L790.301 112.171Z" fill="url(#paint20_linear_168_30)"/>
<path d="M816.302 112.171H832.334V116.972H821.5V121.371H831.735V126.171H821.5V130.972H832.935V135.771H816.302V112.171Z" fill="url(#paint21_linear_168_30)"/>
<path d="M842.3 121.938H845.366C845.832 121.938 846.328 121.921 846.849 121.889C847.372 121.855 847.844 121.754 848.266 121.587C848.688 121.421 849.038 121.161 849.317 120.805C849.594 120.45 849.733 119.95 849.733 119.305C849.733 118.705 849.61 118.227 849.366 117.871C849.121 117.517 848.81 117.243 848.433 117.055C848.054 116.866 847.621 116.738 847.133 116.671C846.644 116.605 846.165 116.571 845.7 116.571H842.3V121.938ZM837.1 112.171H846.233C847.433 112.171 848.572 112.289 849.65 112.522C850.726 112.754 851.67 113.143 852.484 113.689C853.293 114.233 853.938 114.966 854.416 115.889C854.893 116.81 855.133 117.961 855.133 119.338C855.133 121.005 854.7 122.421 853.832 123.587C852.966 124.754 851.7 125.494 850.033 125.805L856.033 135.771H849.8L844.866 126.338H842.3V135.771H837.1V112.171Z" fill="url(#paint22_linear_168_30)"/>
<path d="M705.803 137.504H721.835V142.306H711.001V146.704H721.236V151.504H711.001V156.306H722.436V161.104H705.803V137.504Z" fill="url(#paint23_linear_168_30)"/>
<path d="M726.603 137.504H733.669L743.703 153.904H743.769V137.504H748.969V161.104H742.169L731.869 144.306H731.803V161.104H726.603V137.504Z" fill="url(#paint24_linear_168_30)"/>
<path d="M757.902 149.305C757.902 150.416 758.074 151.433 758.418 152.355C758.764 153.277 759.257 154.077 759.902 154.755C760.545 155.433 761.32 155.96 762.218 156.337C763.118 156.717 764.124 156.904 765.236 156.904C766.346 156.904 767.352 156.717 768.252 156.337C769.153 155.96 769.924 155.433 770.569 154.755C771.212 154.077 771.708 153.277 772.052 152.355C772.396 151.433 772.569 150.416 772.569 149.305C772.569 148.217 772.396 147.205 772.052 146.272C771.708 145.337 771.212 144.533 770.569 143.855C769.924 143.177 769.153 142.649 768.252 142.272C767.352 141.893 766.346 141.705 765.236 141.705C764.124 141.705 763.118 141.893 762.218 142.272C761.32 142.649 760.545 143.177 759.902 143.855C759.257 144.533 758.764 145.337 758.418 146.272C758.074 147.205 757.902 148.217 757.902 149.305ZM752.501 149.305C752.501 147.416 752.818 145.705 753.452 144.171C754.085 142.639 754.969 141.333 756.101 140.255C757.236 139.177 758.58 138.349 760.136 137.772C761.69 137.193 763.39 136.904 765.236 136.904C767.08 136.904 768.78 137.193 770.334 137.772C771.89 138.349 773.236 139.177 774.369 140.255C775.501 141.333 776.385 142.639 777.018 144.171C777.653 145.705 777.969 147.416 777.969 149.305C777.969 151.193 777.653 152.904 777.018 154.439C776.385 155.972 775.501 157.277 774.369 158.355C773.236 159.433 771.89 160.261 770.334 160.837C768.78 161.416 767.08 161.705 765.236 161.705C763.39 161.705 761.69 161.416 760.136 160.837C758.58 160.261 757.236 159.433 756.101 158.355C754.969 157.277 754.085 155.972 753.452 154.439C752.818 152.904 752.501 151.193 752.501 149.305Z" fill="url(#paint25_linear_168_30)"/>
<path d="M801.401 152.004C801.401 153.404 801.19 154.694 800.768 155.871C800.346 157.05 799.718 158.071 798.885 158.938C798.052 159.806 797.013 160.482 795.768 160.972C794.524 161.46 793.09 161.704 791.469 161.704C789.822 161.704 788.378 161.46 787.136 160.972C785.89 160.482 784.852 159.806 784.018 158.938C783.185 158.071 782.557 157.05 782.136 155.871C781.712 154.694 781.501 153.404 781.501 152.004V137.504H786.702V151.806C786.702 152.538 786.817 153.216 787.052 153.838C787.285 154.46 787.612 154.999 788.036 155.455C788.457 155.911 788.962 156.266 789.552 156.522C790.141 156.776 790.778 156.904 791.469 156.904C792.156 156.904 792.79 156.776 793.369 156.522C793.945 156.266 794.445 155.911 794.869 155.455C795.29 154.999 795.618 154.46 795.852 153.838C796.085 153.216 796.202 152.538 796.202 151.806V137.504H801.401V152.004Z" fill="url(#paint26_linear_168_30)"/>
<path d="M827.568 159.438C826.035 160.238 824.434 160.815 822.767 161.171C821.1 161.526 819.402 161.705 817.668 161.705C815.823 161.705 814.123 161.415 812.568 160.838C811.012 160.261 809.668 159.433 808.535 158.355C807.402 157.277 806.518 155.971 805.884 154.438C805.252 152.905 804.934 151.193 804.934 149.305C804.934 147.415 805.252 145.705 805.884 144.171C806.518 142.638 807.402 141.333 808.535 140.254C809.668 139.178 811.012 138.35 812.568 137.771C814.123 137.193 815.823 136.905 817.668 136.905C819.556 136.905 821.296 137.133 822.884 137.587C824.474 138.043 825.868 138.827 827.068 139.938L823.402 143.938C822.69 143.205 821.89 142.649 821.002 142.271C820.112 141.894 819.002 141.705 817.668 141.705C816.556 141.705 815.551 141.894 814.651 142.271C813.752 142.649 812.979 143.178 812.335 143.854C811.69 144.533 811.196 145.338 810.851 146.271C810.507 147.205 810.335 148.217 810.335 149.305C810.335 150.415 810.507 151.433 810.851 152.354C811.196 153.277 811.69 154.077 812.335 154.754C812.979 155.433 813.752 155.961 814.651 156.338C815.551 156.717 816.556 156.905 817.668 156.905C818.802 156.905 819.779 156.777 820.6 156.521C821.424 156.266 822.079 156.005 822.568 155.738V151.905H818.335V147.105H827.568V159.438Z" fill="url(#paint27_linear_168_30)"/>
<path d="M832.135 137.504H837.335V146.306H847.436V137.504H852.635V161.104H847.436V150.904H837.335V161.104H832.135V137.504Z" fill="url(#paint28_linear_168_30)"/>
<defs>
<linearGradient id="paint0_linear_168_30" x1="300.458" y1="133.401" x2="509.3" y2="124.849" gradientUnits="userSpaceOnUse">
<stop stop-color="white"/>
<stop offset="1" stop-color="white" stop-opacity="0.51"/>
</linearGradient>
<linearGradient id="paint1_linear_168_30" x1="514.475" y1="145.479" x2="680.932" y2="135.864" gradientUnits="userSpaceOnUse">
<stop stop-color="white"/>
<stop offset="1" stop-color="white" stop-opacity="0.51"/>
</linearGradient>
<linearGradient id="paint2_linear_168_30" x1="214.239" y1="133.426" x2="301.486" y2="131.934" gradientUnits="userSpaceOnUse">
<stop stop-color="white"/>
<stop offset="1" stop-color="white" stop-opacity="0.51"/>
</linearGradient>
<linearGradient id="paint3_linear_168_30" x1="-1.70206" y1="145.394" x2="72.9381" y2="143.476" gradientUnits="userSpaceOnUse">
<stop stop-color="white"/>
<stop offset="1" stop-color="white" stop-opacity="0.51"/>
</linearGradient>
<linearGradient id="paint4_linear_168_30" x1="28.7391" y1="131.919" x2="201.8" y2="125.969" gradientUnits="userSpaceOnUse">
<stop stop-color="white"/>
<stop offset="1" stop-color="white" stop-opacity="0.51"/>
</linearGradient>
<linearGradient id="paint5_linear_168_30" x1="538.016" y1="45.5296" x2="704.674" y2="17.0765" gradientUnits="userSpaceOnUse">
<stop stop-color="white"/>
<stop offset="1" stop-color="white" stop-opacity="0.51"/>
</linearGradient>
<linearGradient id="paint6_linear_168_30" x1="613.503" y1="96.9785" x2="692.837" y2="90.162" gradientUnits="userSpaceOnUse">
<stop stop-color="white"/>
<stop offset="1" stop-color="white" stop-opacity="0.51"/>
</linearGradient>
<linearGradient id="paint7_linear_168_30" x1="705.288" y1="18.9634" x2="729.786" y2="18.277" gradientUnits="userSpaceOnUse">
<stop stop-color="white"/>
<stop offset="1" stop-color="white" stop-opacity="0.51"/>
</linearGradient>
<linearGradient id="paint8_linear_168_30" x1="731.148" y1="18.9641" x2="751.032" y2="18.512" gradientUnits="userSpaceOnUse">
<stop stop-color="white"/>
<stop offset="1" stop-color="white" stop-opacity="0.51"/>
</linearGradient>
<linearGradient id="paint9_linear_168_30" x1="705.018" y1="105.658" x2="724.961" y2="105.204" gradientUnits="userSpaceOnUse">
<stop stop-color="white"/>
<stop offset="1" stop-color="white" stop-opacity="0.51"/>
</linearGradient>
<linearGradient id="paint10_linear_168_30" x1="726.89" y1="105.657" x2="744.412" y2="105.307" gradientUnits="userSpaceOnUse">
<stop stop-color="white"/>
<stop offset="1" stop-color="white" stop-opacity="0.51"/>
</linearGradient>
<linearGradient id="paint11_linear_168_30" x1="745.004" y1="105.657" x2="771.082" y2="104.881" gradientUnits="userSpaceOnUse">
<stop stop-color="white"/>
<stop offset="1" stop-color="white" stop-opacity="0.51"/>
</linearGradient>
<linearGradient id="paint12_linear_168_30" x1="772.645" y1="105.657" x2="788.272" y2="105.379" gradientUnits="userSpaceOnUse">
<stop stop-color="white"/>
<stop offset="1" stop-color="white" stop-opacity="0.51"/>
</linearGradient>
<linearGradient id="paint13_linear_168_30" x1="790.576" y1="105.658" x2="796.056" y2="105.623" gradientUnits="userSpaceOnUse">
<stop stop-color="white"/>
<stop offset="1" stop-color="white" stop-opacity="0.51"/>
</linearGradient>
<linearGradient id="paint14_linear_168_30" x1="797.925" y1="105.658" x2="817.587" y2="105.217" gradientUnits="userSpaceOnUse">
<stop stop-color="white"/>
<stop offset="1" stop-color="white" stop-opacity="0.51"/>
</linearGradient>
<linearGradient id="paint15_linear_168_30" x1="816.027" y1="105.657" x2="840.177" y2="104.992" gradientUnits="userSpaceOnUse">
<stop stop-color="white"/>
<stop offset="1" stop-color="white" stop-opacity="0.51"/>
</linearGradient>
<linearGradient id="paint16_linear_168_30" x1="705.375" y1="130.99" x2="710.855" y2="130.955" gradientUnits="userSpaceOnUse">
<stop stop-color="white"/>
<stop offset="1" stop-color="white" stop-opacity="0.51"/>
</linearGradient>
<linearGradient id="paint17_linear_168_30" x1="713.176" y1="131.347" x2="731.12" y2="130.998" gradientUnits="userSpaceOnUse">
<stop stop-color="white"/>
<stop offset="1" stop-color="white" stop-opacity="0.51"/>
</linearGradient>
<linearGradient id="paint18_linear_168_30" x1="743.778" y1="130.99" x2="767.333" y2="130.357" gradientUnits="userSpaceOnUse">
<stop stop-color="white"/>
<stop offset="1" stop-color="white" stop-opacity="0.51"/>
</linearGradient>
<linearGradient id="paint19_linear_168_30" x1="771.323" y1="130.99" x2="788.845" y2="130.64" gradientUnits="userSpaceOnUse">
<stop stop-color="white"/>
<stop offset="1" stop-color="white" stop-opacity="0.51"/>
</linearGradient>
<linearGradient id="paint20_linear_168_30" x1="789.581" y1="130.99" x2="814.151" y2="130.302" gradientUnits="userSpaceOnUse">
<stop stop-color="white"/>
<stop offset="1" stop-color="white" stop-opacity="0.51"/>
</linearGradient>
<linearGradient id="paint21_linear_168_30" x1="815.788" y1="130.99" x2="833.311" y2="130.64" gradientUnits="userSpaceOnUse">
<stop stop-color="white"/>
<stop offset="1" stop-color="white" stop-opacity="0.51"/>
</linearGradient>
<linearGradient id="paint22_linear_168_30" x1="836.515" y1="130.99" x2="856.458" y2="130.537" gradientUnits="userSpaceOnUse">
<stop stop-color="white"/>
<stop offset="1" stop-color="white" stop-opacity="0.51"/>
</linearGradient>
<linearGradient id="paint23_linear_168_30" x1="705.289" y1="156.323" x2="722.812" y2="155.973" gradientUnits="userSpaceOnUse">
<stop stop-color="white"/>
<stop offset="1" stop-color="white" stop-opacity="0.51"/>
</linearGradient>
<linearGradient id="paint24_linear_168_30" x1="725.912" y1="156.323" x2="749.467" y2="155.691" gradientUnits="userSpaceOnUse">
<stop stop-color="white"/>
<stop offset="1" stop-color="white" stop-opacity="0.51"/>
</linearGradient>
<linearGradient id="paint25_linear_168_30" x1="751.715" y1="156.681" x2="778.532" y2="155.9" gradientUnits="userSpaceOnUse">
<stop stop-color="white"/>
<stop offset="1" stop-color="white" stop-opacity="0.51"/>
</linearGradient>
<linearGradient id="paint26_linear_168_30" x1="780.887" y1="156.802" x2="801.847" y2="156.313" gradientUnits="userSpaceOnUse">
<stop stop-color="white"/>
<stop offset="1" stop-color="white" stop-opacity="0.51"/>
</linearGradient>
<linearGradient id="paint27_linear_168_30" x1="804.235" y1="156.681" x2="828.073" y2="156.064" gradientUnits="userSpaceOnUse">
<stop stop-color="white"/>
<stop offset="1" stop-color="white" stop-opacity="0.51"/>
</linearGradient>
<linearGradient id="paint28_linear_168_30" x1="831.502" y1="156.323" x2="853.093" y2="155.792" gradientUnits="userSpaceOnUse">
<stop stop-color="white"/>
<stop offset="1" stop-color="white" stop-opacity="0.51"/>
</linearGradient>
</defs>
</svg>
