<svg width="174" height="44" viewBox="0 0 174 44" fill="none" xmlns="http://www.w3.org/2000/svg">
<path fill-rule="evenodd" clip-rule="evenodd" d="M13.5016 43.8482H17.5336V26.629H13.5016V43.8482ZM28.2815 43.5899H31.8927V32.7256L47.0932 43.8482V26.8872H43.4921V37.5658L28.2815 26.629V43.5899ZM55.337 39.4196C57.3026 40.6438 59.6618 41.3514 62.191 41.3514C64.6546 41.3514 66.3827 40.6734 66.3827 39.1762C66.3827 37.8712 65.2805 37.36 63.3505 36.7883L60.2256 35.9205C57.3446 35.1027 55.1536 33.9081 55.1536 31.1625C55.1536 28.2258 58.4704 26.629 62.4367 26.629C64.8666 26.629 67.0812 27.1173 68.8111 27.9822V30.8947C67.0121 29.8319 65.0433 29.1002 62.514 29.1002C60.3366 29.1002 58.7093 29.7499 58.7093 31.1046C58.7093 32.3288 59.7308 32.8185 61.5297 33.3108L65.0113 34.2875C68.3853 35.2359 69.9334 36.7062 69.9334 39.125C69.9334 42.168 66.5848 43.8482 62.191 43.8482C59.3034 43.8482 56.8482 43.2025 55.337 42.3873V39.4196ZM79.3401 43.8482H83.3703V26.629H79.3401V43.8482ZM102.278 41.2424C106.822 41.2424 109.25 38.9125 109.25 35.2346C109.25 31.5296 106.82 29.2078 102.278 29.2078H97.785V41.2424H102.278ZM94.1166 26.629H102.413C108.799 26.629 112.928 29.992 112.928 35.2346C112.928 40.481 108.799 43.8482 102.413 43.8482H94.1166V26.629ZM133.084 26.629V29.2078H123.329V33.3511H132.079V35.9004H123.328V41.2424H133.084V43.8482H119.648V26.629H133.084ZM147.392 34.426H151.391C153.759 34.426 155.094 33.3875 155.094 31.7907C155.094 30.1938 153.759 29.154 151.391 29.154H147.392V34.4273V34.426ZM147.392 36.861V43.8482H143.832V26.629H151.458C155.807 26.629 158.62 28.4194 158.62 31.7907C158.62 34.6735 157.059 36.3295 153.732 36.7546L161.3 43.8482H157.251L149.924 36.8623H147.393L147.392 36.861ZM12.0931 9.66522C13.6699 9.20383 14.8983 7.81953 14.8983 5.91601C14.8983 2.74387 12.0931 1.09997 7.60528 1.09997H0.0664062V18.8075H8.30532C12.7932 18.8075 15.5984 17.0479 15.5984 13.732C15.5984 11.8567 14.1259 10.2128 12.0931 9.66522ZM3.60696 8.54066V3.69638H7.57161C10.0621 3.69638 11.3931 4.41738 11.3931 6.08954C11.3931 7.76169 10.0604 8.54066 7.57161 8.54066H3.60696ZM3.60696 11.0213H8.23453C10.6914 11.0213 12.0225 12.0007 12.0225 13.6163C12.0225 15.2023 10.6897 16.2126 8.23625 16.2126H3.60864V11.0199L3.60696 11.0213ZM32.0475 19.0955C37.2018 19.0955 40.6734 16.6148 40.6734 11.7705V1.09997H37.0268V11.4235C37.0268 14.827 35.2734 16.4144 32.0475 16.4144C28.8216 16.4144 27.0699 14.827 27.0699 11.4235V1.09997H23.4233V11.741C23.4233 16.6148 26.9285 19.0955 32.0475 19.0955ZM49.2589 17.5377C50.7666 18.404 53.2218 19.0955 56.096 19.0955C60.4796 19.0955 63.8098 17.3063 63.8098 14.0777C63.8098 11.5109 62.2683 9.95308 58.9012 8.94421L55.4312 7.90562C53.6425 7.38774 52.6261 6.86851 52.6261 5.5703C52.6261 4.12817 54.2382 3.43676 56.4124 3.43676C58.9365 3.43676 60.9003 4.21425 62.689 5.34029V2.25289C60.971 1.33134 58.7615 0.812105 56.3417 0.812105C52.3805 0.812105 49.0839 2.51386 49.0839 5.62815C49.0839 8.54066 51.258 9.80915 54.1322 10.6742L57.2537 11.597C59.1822 12.2024 60.2692 12.7513 60.2692 14.1356C60.2692 15.7216 58.5512 16.4426 56.096 16.4426C53.5719 16.4426 51.2227 15.692 49.2589 14.3952V17.5377ZM76.8396 1.09997H73.1947V18.8063H76.8396V1.09997ZM87.2425 18.7847H90.756V7.26527L105.544 19.0591V1.07308H102.041V12.3961L87.2425 0.800018V18.7847ZM128.331 1.10403V3.75558H118.864V8.01736H127.353V10.6392H118.864V16.132H128.331V18.8116H115.289V1.10403H128.331ZM136.82 17.5256C138.328 18.3919 140.781 19.0834 143.657 19.0834C148.039 19.0834 151.372 17.2955 151.372 14.0656C151.372 11.4988 149.828 9.94235 146.463 8.93212L142.991 7.89489C141.202 7.37566 140.185 6.8563 140.185 5.55822C140.185 4.11608 141.797 3.42455 143.972 3.42455C146.496 3.42455 148.46 4.20353 150.248 5.3282V2.24215C148.53 1.31925 146.321 0.800018 143.901 0.800018C139.94 0.800018 136.643 2.50177 136.643 5.61606C136.643 8.52845 138.818 9.79706 141.691 10.6621L144.813 11.5849C146.742 12.1903 147.828 12.7392 147.828 14.1235C147.828 15.7095 146.113 16.4305 143.656 16.4305C141.131 16.4305 138.782 15.6812 136.82 14.3831V17.5256ZM158.841 17.5256C160.349 18.3919 162.804 19.0834 165.678 19.0834C170.062 19.0834 173.392 17.2955 173.392 14.0656C173.392 11.4988 171.849 9.94235 168.483 8.93212L165.011 7.89489C163.224 7.37566 162.207 6.8563 162.207 5.55822C162.207 4.11608 163.82 3.42455 165.993 3.42455C168.518 3.42455 170.482 4.20353 172.269 5.3282V2.24215C170.553 1.31925 168.344 0.800018 165.924 0.800018C161.961 0.800018 158.666 2.50177 158.666 5.61606C158.666 8.52845 160.84 9.79706 163.714 10.6621L166.835 11.5849C168.764 12.1903 169.851 12.7392 169.851 14.1235C169.851 15.7095 168.133 16.4305 165.678 16.4305C163.154 16.4305 160.804 15.6812 158.841 14.3831V17.5256Z" fill="white"/>
</svg>
