<svg width="162" height="44" viewBox="0 0 162 44" fill="none" xmlns="http://www.w3.org/2000/svg">
<path d="M15.9345 4.81106H19.4584C21.6044 4.48805 23.7961 4.77209 25.7952 5.63222C28.3033 7.17401 30.1225 9.65609 30.8647 12.549C31.3902 14.065 31.3902 14.065 32.6576 13.5281H33.6467V1.52645H0.478599V3.64248H1.83871C2.42976 3.63829 3.01421 3.76952 3.54914 4.02642C4.08406 4.28332 4.55586 4.65936 4.92988 5.12692C6.19731 7.2115 6.41363 9.54867 6.41363 21.7082C6.41363 34.6258 6.13539 37.7842 4.92988 39.395C4.63226 39.809 4.24694 40.149 3.80267 40.3898C3.35841 40.6304 2.86669 40.7653 2.36421 40.7846C0.4786 41.132 0.478599 41.1004 0.478599 41.9531C0.374321 42.2383 0.374321 42.5524 0.478599 42.8376H21.4058C21.5443 42.5586 21.6164 42.2501 21.6164 41.9374C21.6164 41.6246 21.5443 41.3162 21.4058 41.0373C20.8989 40.8932 20.3824 40.7876 19.8602 40.7214C19.2954 40.6528 18.7371 40.5367 18.191 40.374C17.4089 39.7907 16.7894 39.0089 16.3938 38.1061C15.998 37.2032 15.8396 36.2105 15.9345 35.2259C15.6253 33.1415 15.4707 29.3199 15.4707 26.1615V23.6664H16.7072C18.2477 23.6183 19.7873 23.7882 21.2821 24.1717C21.9983 24.6238 22.6078 25.232 23.0673 25.9526C23.5269 26.6734 23.8251 27.4887 23.9405 28.3407L24.2188 29.3199H26.1044V15.3284H24.3733L24.0951 16.6865C23.978 17.5577 23.6625 18.3888 23.174 19.1129C22.6855 19.8369 22.0375 20.4338 21.2821 20.8555C20.5506 21.0779 19.78 21.1319 19.0256 21.0134H15.4707V17.6023C15.4707 14.065 15.6562 6.61136 15.7798 5.44278L15.9345 4.81106ZM160.601 29.8567C159.14 27.454 156.861 25.6878 154.202 24.8981C152.165 24.2472 150.28 23.1718 148.669 21.7398C148.307 21.3815 148.035 20.9381 147.879 20.4481C147.723 19.9581 147.686 19.4365 147.773 18.9289C147.775 17.933 148.164 16.9789 148.854 16.2759C149.323 15.7752 149.915 15.4137 150.569 15.2301C151.221 15.0466 151.912 15.0477 152.564 15.2336C153.916 15.6272 155.137 16.3868 156.1 17.432C157.063 18.4774 157.732 19.7694 158.035 21.1714C158.53 22.5925 158.591 22.5925 159.488 22.2135L160.044 21.9925V14.1282L159.642 13.9387C156.6 12.8466 153.371 12.3954 150.153 12.6123C147.382 12.6839 144.735 13.8102 142.734 15.7706C141.827 16.6387 141.115 17.6992 140.65 18.8776C140.186 20.056 139.979 21.3239 140.045 22.5925C140.062 24.5322 140.815 26.3892 142.146 27.7723C143.618 29.2503 145.423 30.3351 147.401 30.9306C152.193 32.8572 153.584 34.0889 153.584 36.3314C153.605 37.277 153.31 38.2017 152.748 38.9536C152.187 39.7054 151.391 40.2397 150.493 40.4687C149.413 40.7111 148.296 40.7111 147.216 40.4687C145.803 39.9084 144.541 39.0113 143.536 37.8522C142.531 36.6931 141.811 35.3055 141.436 33.8046L141.034 32.794H140.477C140.211 32.8141 139.951 32.8782 139.704 32.9835H139.396V41.9531H139.921C142.009 42.663 144.164 43.1498 146.351 43.406H149.441C150.782 43.5065 152.13 43.3785 153.43 43.027C155.079 42.716 156.621 41.9693 157.901 40.8611C159.18 39.753 160.154 38.3221 160.725 36.7104C161.094 35.8102 161.283 34.8437 161.281 33.8678C161.402 32.493 161.168 31.1096 160.601 29.8567ZM131.483 13.5281C129.63 12.7335 127.634 12.3481 125.626 12.3971C123.618 12.446 121.642 12.9284 119.829 13.8124C118.125 14.6642 116.614 15.8716 115.394 17.3567C114.175 18.8418 113.274 20.5717 112.75 22.4347C112.081 24.4668 111.798 26.6107 111.915 28.7513C111.893 29.9161 111.986 31.08 112.193 32.2255C112.692 35.0422 114.023 37.6352 116.007 39.6564C117.991 41.6776 120.532 43.0302 123.291 43.5323C125.087 43.7636 126.905 43.7636 128.7 43.5323C130.564 43.1967 132.347 42.4999 133.956 41.4794C135.285 40.7178 136.41 39.633 137.231 38.3211C137.18 38.1153 137.086 37.9224 136.959 37.7541C136.832 37.5859 136.671 37.4457 136.49 37.342C136.137 37.4726 135.804 37.6532 135.501 37.8789C133.963 38.9142 132.148 39.4332 130.307 39.3634C129.086 39.4478 127.862 39.2534 126.723 38.7946C125.584 38.3357 124.56 37.6238 123.724 36.7104C123.076 36.0964 122.542 35.369 122.146 34.5626C121.187 32.5992 120.669 30.4407 120.632 28.246V27.0143H137.757V26.3826C137.795 25.7515 137.795 25.1186 137.757 24.4875C137.751 22.2574 137.167 20.0688 136.065 18.1439C134.963 16.2189 133.382 14.6264 131.483 13.5281ZM122.858 24.456H120.694V22.5925C121.405 17.8235 123.166 14.981 125.331 14.981C127.494 14.981 128.422 17.7919 128.824 22.94V24.3928H126.969L122.858 24.456ZM78.4069 12.4859C77.3388 12.4435 76.2769 12.6713 75.3157 13.1491C73.2265 14.1858 71.5391 15.91 70.5244 18.0446L70.1226 18.8026V12.4859H69.968C69.5971 12.4859 58.1597 14.823 57.7888 14.981C57.4179 15.1389 57.5415 15.1704 57.5415 15.739C57.5415 16.3075 57.5415 16.4022 57.7888 16.4338L58.9943 16.6865C59.332 16.695 59.6633 16.7818 59.9632 16.9405C60.2632 17.0991 60.5238 17.3256 60.7254 17.6023C61.4982 18.6446 61.6528 20.4765 61.6528 28.2776C61.8055 31.7895 61.6607 35.3084 61.22 38.7948C61.1163 39.3206 60.8553 39.8004 60.4734 40.1681C60.0913 40.5358 59.6069 40.7733 59.0871 40.8477L58.0362 41.0688H57.6342V41.9531C57.5221 42.2478 57.5221 42.5745 57.6342 42.8691H74.9138V41.9531C74.9738 41.651 74.9738 41.3396 74.9138 41.0373C73.8735 40.9958 72.8389 40.8584 71.8227 40.6267C71.2693 40.3309 70.8166 39.8709 70.5242 39.3071C70.2317 38.7433 70.1132 38.1023 70.1844 37.4684C69.9371 35.6365 69.8134 30.2673 69.8753 26.1615C69.9371 22.0557 69.8753 21.8029 70.2153 21.5188C71.2497 20.7084 72.5297 20.2948 73.832 20.3502C75.0595 20.3775 76.2647 20.6907 77.3558 21.2661C77.7341 21.4807 78.1399 21.6401 78.5614 21.7398C78.5614 21.7398 81.6526 14.0966 81.6526 13.7492C81.257 13.2795 80.753 12.9181 80.1863 12.6975C79.6196 12.4768 79.008 12.4042 78.4069 12.4859ZM57.5724 25.7508C57.4645 23.494 56.8303 21.296 55.7227 19.3402C54.615 17.3845 53.0659 15.7274 51.2046 14.5072C48.9926 13.2879 46.5315 12.6156 44.0191 12.5443C41.5067 12.473 39.0129 13.0047 36.738 14.0966C33.5216 15.8295 31.0931 18.7754 29.9683 22.3084C28.8065 26.2639 28.8065 30.4808 29.9683 34.4363C30.5773 36.5981 31.7157 38.5657 33.2759 40.153C35.219 42.0902 37.7244 43.3313 40.4165 43.6903C42.1445 43.8379 43.8816 43.8379 45.6096 43.6903C46.2455 43.5914 46.8751 43.4544 47.4952 43.2797C50.0114 42.5606 52.2749 41.1241 54.0212 39.1386C55.7674 37.153 56.9242 34.7003 57.3561 32.0676C57.6647 29.9775 57.7372 27.858 57.5724 25.7508ZM44.7132 41.5426C41.622 42.4901 39.3037 39.4265 38.5309 32.9835C38.2471 29.6103 38.2471 26.2184 38.5309 22.8452C39.1491 17.6656 40.7256 15.0442 43.1676 15.0442C43.6603 15.0129 44.1531 15.1027 44.6049 15.3061C45.0566 15.5094 45.4542 15.8203 45.7641 16.2127C47.8353 18.3288 48.8554 22.5294 48.8554 28.846C49.1125 32.421 48.5626 36.0085 47.2479 39.3318C46.6674 40.301 45.7693 41.0284 44.7132 41.3847V41.5426ZM100.354 13.1176C99.482 13.0029 98.5989 13.0029 97.7267 13.1176C96.0523 13.1161 94.3973 13.4823 92.8735 14.1914L91.9152 14.602V7.74837C92.0827 5.43538 92.0827 3.11301 91.9152 0.800018C91.5443 0.800018 79.736 3.10561 79.5505 3.20033C79.4594 3.43356 79.4594 3.69354 79.5505 3.92676C79.5505 4.59005 79.5506 4.55848 80.9416 4.87433C81.3322 4.96375 81.7073 5.11286 82.0545 5.31648C82.6578 5.89615 83.0594 6.66143 83.1981 7.49566C83.5501 9.8993 83.6641 12.3329 83.5382 14.7599V42.4901L84.3729 42.6796C85.6093 42.9639 89.1023 43.5639 90.246 43.6903C92.5299 43.8759 94.8245 43.8759 97.1084 43.6903C99.6434 43.4257 102.06 42.4594 104.097 40.8956C106.134 39.3316 107.715 37.2294 108.669 34.8153C109.238 33.2659 109.632 31.6553 109.844 30.0146C110.028 27.7923 109.955 25.5556 109.628 23.3505C109.296 20.8789 108.228 18.5712 106.569 16.7407C104.91 14.9101 102.741 13.6452 100.354 13.1176ZM92.2552 41.0057C92.2552 40.5951 91.9462 26.7616 92.0079 21.2345V16.9076L92.9045 16.6865C93.5093 16.5979 94.1234 16.5979 94.7282 16.6865C95.3972 16.617 96.0699 16.7722 96.6448 17.1286C97.7992 17.9426 98.7577 19.0136 99.4484 20.2609C100.139 21.5083 100.544 22.8994 100.632 24.3297C100.857 26.6295 100.857 28.9465 100.632 31.2465C100.447 34.589 99.1868 37.7756 97.0466 40.3108C96.4392 40.9004 95.6763 41.2955 94.8519 41.4478C94.2281 41.5587 93.5901 41.5587 92.9662 41.4478C92.3789 41.4478 92.3789 41.2584 92.3789 41.0057H92.2552Z" fill="white"/>
</svg>
