<svg width="351" height="57" viewBox="0 0 351 57" fill="none" xmlns="http://www.w3.org/2000/svg">
<path d="M34.5666 41.0151L24.6461 45.313V44.8846C22.669 45.3714 20.6467 45.6592 18.6102 45.7437C9.28175 45.6527 1.87424 40.7887 1.79062 35.0034V32.8544C4.85488 37.2922 11.0919 40.267 18.6102 40.1582C21.1525 40.267 23.7558 39.8652 25.941 39.2991L26.8042 37.1501C24.2099 37.9227 21.3807 38.4577 18.6102 38.4377C9.28175 38.4599 1.87424 33.5959 1.79062 27.7018V25.9835C4.85488 30.0861 11.0783 33.0609 18.6102 32.8566C21.9977 33.0609 25.3105 32.3505 28.0967 31.1384L28.5284 28.9894C25.8077 30.4213 22.2801 31.2516 18.608 31.1384C9.28409 31.2471 1.87875 26.3853 1.79289 20.3958V18.6775C4.85715 22.8733 11.0941 25.8481 18.6124 25.9813C22.8834 25.8481 26.9352 24.7248 30.2548 22.9732L30.6865 20.3958C27.6742 22.6202 23.2744 24.0543 18.6124 24.263C9.28175 24.0543 1.87424 19.1903 1.79062 13.092C1.8765 7.29333 9.28175 2.43153 18.6102 2.35161C24.1693 2.42931 29.3351 4.37181 32.4107 7.50645L32.709 8.00373L34.8829 8.01261L34.5666 7.50645C31.5068 3.36615 25.3918 0.633331 18.6102 0.633331C8.28978 0.633331 0.0664062 6.30099 0.0664062 13.092V35.4341C0.42797 42.0608 8.4638 47.462 18.6102 47.462C25.3105 47.462 31.3328 44.8358 34.5643 41.0174L34.5666 41.0151Z" fill="white"/>
<path d="M30.5311 56.1333L34.0136 41.3925L24.0027 45.7282L30.0996 20.1449H18.3486L21.3948 7.5708H58.8215L55.7752 20.1449H43.5882L40.9782 27.0824L54.4691 21.4458L30.5311 56.1333ZM36.6258 38.3555L34.8858 47.0269L49.2467 25.3486L37.4959 30.5522L42.7182 18.4088H54.4691L56.6452 9.30684H22.6987L20.5226 18.4088H32.2735L26.6149 42.6912L36.6258 38.3555ZM92.9758 28.794C92.8018 31.1694 91.907 33.0431 90.2958 34.4084C88.6845 35.7737 86.5604 36.4574 83.9231 36.4574C81.0396 36.4574 78.7709 35.5028 77.1212 33.5959C75.4648 31.6911 74.6399 29.0715 74.6399 25.7437V24.3917C74.6399 22.2672 75.0218 20.3957 75.7834 18.7751C76.545 17.159 77.6341 15.9158 79.0511 15.0522C80.4657 14.1864 82.1107 13.7535 83.9864 13.7535C86.5806 13.7535 88.671 14.4373 90.2573 15.8026C91.8437 17.1679 92.7612 19.0859 93.0075 21.5524H88.375C88.2597 20.1271 87.8551 19.0926 87.1614 18.451C86.4654 17.8072 85.4078 17.4875 83.9864 17.4875C82.4407 17.4875 81.286 18.0314 80.5176 19.1192C79.7493 20.207 79.3561 21.8942 79.3357 24.1808V25.8481C79.3357 28.2368 79.7041 29.9817 80.4408 31.085C81.1775 32.1884 82.339 32.7389 83.9231 32.7389C85.3559 32.7389 86.4247 32.417 87.1298 31.7755C87.8348 31.1317 88.2371 30.1393 88.341 28.794H92.9758ZM116.756 25.6061C116.756 27.7817 116.365 29.6887 115.58 31.327C114.799 32.9654 113.678 34.2308 112.22 35.1232C110.765 36.0112 109.093 36.4552 107.208 36.4552C105.344 36.4552 103.683 36.0157 102.218 35.1365C100.756 34.2574 99.6241 32.9987 98.8197 31.3648C98.0174 29.7308 97.6106 27.8527 97.5993 25.726V24.6359C97.5993 22.4603 97.9993 20.5445 98.797 18.8906C99.5947 17.2367 100.722 15.9668 102.18 15.0811C103.637 14.1975 105.303 13.7535 107.176 13.7535C109.052 13.7535 110.717 14.1975 112.175 15.0811C113.633 15.9691 114.76 17.2367 115.558 18.8906C116.355 20.5445 116.756 22.4537 116.756 24.6182V25.6061ZM112.06 24.6049C112.06 22.2872 111.637 20.5267 110.792 19.3213C109.947 18.1202 108.742 17.5164 107.176 17.5164C105.622 17.5164 104.422 18.1114 103.579 19.3013C102.734 20.489 102.306 22.2317 102.295 24.5294V25.6061C102.295 27.8616 102.718 29.6132 103.561 30.8564C104.408 32.0996 105.622 32.7234 107.208 32.7234C108.763 32.7234 109.958 32.124 110.792 30.9252C111.628 29.7264 112.048 27.9793 112.057 25.6816V24.6049H112.06ZM127.311 36.1533H122.676V14.0576H127.308V36.1533H127.311ZM152.155 36.1533H147.518L138.497 21.6145V36.1533H133.862V14.0576H138.495L147.534 28.6253V14.0576H152.153V36.1533H152.155ZM174.945 17.7451H168.053V36.1533H163.42V17.7451H156.625V14.0576H174.947V17.7451H174.945ZM193.378 26.5784H184.48V32.497H194.924V36.1533H179.846V14.0576H194.893V17.7451H184.48V23.0109H193.378V26.5784ZM204.535 32.497H214.376V36.1533H199.9V14.0576H204.532V32.497H204.535ZM232.825 26.5784H223.925V32.497H234.37V36.1533H219.293V14.0576H234.338V17.7451H223.925V23.0109H232.825V26.5784ZM257.145 33.3605C256.309 34.3418 255.131 35.1032 253.606 35.6449C252.082 36.1866 250.393 36.4574 248.539 36.4574C246.594 36.4574 244.886 36.0401 243.418 35.2054C241.951 34.3706 240.82 33.1585 240.02 31.5712C239.222 29.9817 238.813 28.1147 238.793 25.9702V24.4672C238.793 22.2628 239.171 20.3536 239.928 18.7396C240.684 17.1257 241.775 15.8914 243.204 15.0367C244.628 14.182 246.3 13.7535 248.216 13.7535C250.882 13.7535 252.969 14.3795 254.471 15.6272C255.975 16.877 256.866 18.6952 257.145 21.0839H252.634C252.426 19.8185 251.973 18.8928 251.267 18.3067C250.559 17.7206 249.59 17.4254 248.354 17.4254C246.779 17.4254 245.579 18.007 244.754 19.1725C243.931 20.3358 243.513 22.0652 243.505 24.3607V25.7726C243.505 28.0903 243.952 29.8396 244.846 31.0229C245.744 32.2084 247.057 32.7989 248.786 32.7989C250.526 32.7989 251.769 32.4348 252.51 31.7066V27.8971H248.294V24.5449H257.145V33.3605ZM271.483 28.0636H267.793V36.1533H263.158V14.0576H271.515C274.173 14.0576 276.222 14.6393 277.662 15.8026C279.106 16.9658 279.826 18.6109 279.826 20.7354C279.826 22.2428 279.494 23.4993 278.83 24.505C278.165 25.5128 277.157 26.3143 275.808 26.9114L280.676 35.9402V36.1533H275.702L271.483 28.0636ZM267.793 24.3784H271.531C272.694 24.3784 273.595 24.0854 274.233 23.5037C274.873 22.9221 275.191 22.1207 275.191 21.0995C275.191 20.0561 274.89 19.2369 274.287 18.6397C273.687 18.0425 272.762 17.7451 271.515 17.7451H267.793V24.3762V24.3784ZM298.306 31.6001H290.18L288.635 36.1533H283.709L292.081 14.0576H296.375L304.795 36.1533H299.865L298.306 31.6023V31.6001ZM291.432 27.9149H297.055L294.228 19.6432L291.432 27.9127V27.9149ZM313.788 28.3678V36.1533H309.156V14.0576H317.929C319.618 14.0576 321.103 14.3618 322.385 14.9678C323.611 15.5242 324.641 16.425 325.345 17.5564C326.034 18.673 326.378 19.9451 326.378 21.3725C326.378 23.537 325.625 25.2442 324.115 26.4941C322.606 27.7439 320.518 28.3678 317.851 28.3678H313.788ZM313.788 24.6803H317.929C319.154 24.6803 320.088 24.3962 320.731 23.8301C321.377 23.264 321.698 22.4537 321.698 21.4014C321.698 20.3203 321.375 19.4456 320.726 18.7774C320.075 18.1114 319.181 17.765 318.037 17.7451H313.788V24.6803ZM350.126 36.1533H345.494V26.6828H336.455V36.1533H331.821V14.0576H336.455V23.0109H345.494V14.0576H350.126V36.1533Z" fill="white"/>
</svg>
